#format: frame checksums
#version: 1
#hash: MD5
#tb 0: 1/25
#stream#, dts,        pts, duration,     size, hash
0,         -1,          0,        1,    17825, 5044579ab78ce6e951508fcddbb5f2f4
0,          0,          1,        1,     4300, 64f0107ea0aadc727e4dcd6099fa093b
0,          1,          2,        1,     4417, 446486822ceae1b0bffc7c2451d4bd60
0,          2,          3,        1,     4080, b72e40fcd95a459ba41c839b31f09212
0,          3,          4,        1,     4170, b6912359cfa60fb570bac550df4da2eb
0,          4,          5,        1,     4423, e2334718049284676dc8560d4820526f
0,          5,          6,        1,     4482, f3a794bcd8b53820c25f2fe1bcf999d9
0,          6,          7,        1,     4305, 2830ee3449897bf9f1c7f8a3f975df7c
0,          7,          8,        1,     4334, 0086fa7b04e7a4811e1a67ac9c77b673
0,          8,          9,        1,     4478, 322e97608b741e46b2888aff992a80dd
0,          9,         10,        1,     4398, 02e0c70a07208fa68606b88cf6abe948
0,         10,         11,        1,     4622, 6abbaacf29cb511515d2a2da8b91283a
0,         11,         12,        1,    17454, 4f34b9c3936148972a0dfec26146a945
0,         12,         13,        1,     4648, dac7391a90a45027dc3e68808e2e1bc3
0,         13,         14,        1,     4903, 5902c8bb160b5dad6e5aa76adf72289b
0,         14,         15,        1,     4783, 56ec65862b557dfdaf43ad741ea80d18
0,         15,         16,        1,     4848, ea5bf258305a4acf5dc6837ec99f4499
0,         16,         17,        1,     4966, f602bb35260299d545485b8afed6e483
0,         17,         18,        1,     5093, 8668a04babf29f604b41f9dd4777d28f
0,         18,         19,        1,     5281, ef0f3cb953268d14827869e9d01c9429
0,         19,         20,        1,     5513, c6fc20b71296246c178b771d257ba554
0,         20,         21,        1,     5401, da6bce9ef181811db0238c924dd2a903
0,         21,         22,        1,     5463, dd678314f2a115a554b0bce5dae37c53
0,         22,         23,        1,     5568, cd8f2a998024d58421970cafff4afedc
0,         23,         24,        1,    20001, 6f333084e856a25da88d148079a6ab61
0,         24,         25,        1,     5755, e9e9ad5ce187b274624b04e34ca8a7a9
0,         25,         26,        1,     5637, fdc76127adf14f5ff17d186985d9f7ed
0,         26,         27,        1,     5956, 8791e4a1ef538eb84f91548786932ace
0,         27,         28,        1,     5923, b29d39b5007e5560cfa9b04fc97f5a50
0,         28,         29,        1,     6044, 16f5561db2ca825517e875b34f2e4ccb
0,         29,         30,        1,     6531, 1e3f4779e3c5c9fea6957853e0825c67
0,         30,         31,        1,     6414, 9ff575cf6a2fac24b67bb96b4a791161
0,         31,         32,        1,     6283, 4e33bef5002fbfe8373a6d5e8f5eab63
0,         32,         33,        1,     6698, 58c098989cf1a22a1380349825d521ce
0,         33,         34,        1,     6648, e4ce02e18bc356d7d4a6ccfffc2c09d9
0,         34,         35,        1,     6965, 5a644636f19f4bce7ddbf5ad7568567d
0,         35,         36,        1,    22109, 3b27b74d8ed82d7cb33a7d2744be2e4e
0,         36,         37,        1,     7126, 97b1fe0b26abfc4a3e8e1554ef683e4b
0,         37,         38,        1,     6980, ef3135ebc2d8784ed96fb590f79170d4
0,         38,         39,        1,     6933, ff7e090b11ea990c2d47334f8ce528b9
0,         39,         40,        1,     7057, df4ff546b4ff748d23bf5da0377e8bff
0,         40,         41,        1,     7130, 42fd4cdfeefdc824ce3f5cf24916e703
0,         41,         42,        1,     7349, 315ddb271ea896674f3843ef6c2d4c8f
0,         42,         43,        1,     7067, d93d6891db1d720c5fbe33bded673ade
0,         43,         44,        1,     6986, fea1eb05e8690be1ab43e96fde12de1c
0,         44,         45,        1,     7233, bd96dd7ac030133e736fe62ec1feb4f6
0,         45,         46,        1,     7259, 04b57492ed4c840bca617d3afd728bd9
0,         46,         47,        1,     7246, d141c2d49e87c3c818a86c2beda8abd5
0,         47,         48,        1,    23321, db666f1031a653c86d7a5ff7bb529cb7
0,         48,         49,        1,     7130, dd01541844a930e058880dc22d81004d
